# xmcd CD database file
#
# Track frame offsets:
#	150
#	17835
#	34644
#	52564
#	67056
#	78197
#	92636
#	114026
#	132318
#	151096
#	163956
#	180632
#
# Disc length: 2637 seconds
#
# Revision: 2
# Processed by: cddbd v1.5.1PL2 Copyright (c) Steve Scherf et al.
# Submitted via: CDex 1.60beta1
#
DISCID=870a4b0c
DTITLE=Various Artist - Jazz and '80s
DYEAR=2005
DGENRE=Jazz
TTITLE0=Should I Stay Or Should I Go -The Cooltrane Cuartet
TTITLE1=Do You Really Want To Hurt Me - Karen Souza
TTITLE2=Purple Rain - Urselle
TTITLE3=Boys Don't Cry - Jamie Lancaster
TTITLE4=Sweet Dreams - 48 Th St. Collective
TTITLE5=Don't You - Stella Starlight Trio
TTITLE6=In The Air Tonight - James Farrelli
TTITLE7=Hungry Like The Wolf - Dinah Eastwood
TTITLE8=Like A Virgin - The Cooltrane Cuartet
TTITLE9=Patience - Sawa Kobayashi
TTITLE10=With Or Without You - Michelle Simonal
TTITLE11=Nothing Compares 2 U - George White Group
EXTD=YEAR: 2005
EXTT0=
EXTT1=
EXTT2=
EXTT3=
EXTT4=
EXTT5=
EXTT6=
EXTT7=
EXTT8=
EXTT9=
EXTT10=
EXTT11=
PLAYORDER=
